0
SECTION
2
TABLES
0
TABLE
2
LAYER
0
LAYER
70
0
2
Stations
62
84
6
CONTINUOUS
0
LAYER
70
0
2
Blocks
62
84
6
CONTINUOUS
0
LAYER
70
0
2
Times
62
84
6
CONTINUOUS
0
LAYER
70
0
2
HalfTimes
62
84
6
CONTINUOUS
0
LAYER
70
0
2
HourTimes
62
84
6
CONTINUOUS
0
LAYER
70
0
2
Trains
62
10
6
CONTINUOUS
0
LAYER
70
0
2
TrainID
62
10
6
CONTINUOUS
0
LAYER
70
0
2
TrainTime
62
10
6
CONTINUOUS
0
ENDTAB
0
ENDSEC
0
SECTION
2
ENTITIES
0
LINE
8
Stations
10
10
20
-10
11
1430
21
-10
0
LINE
8
Stations
10
10
20
-75.2873563218391
11
1430
21
-75.2873563218391
0
LINE
8
Stations
10
10
20
-149.770114942529
11
1430
21
-149.770114942529
0
POLYLINE
8
Blocks
66
1
0
VERTEX
8
Blocks
10
10
20
-10
0
VERTEX
8
Blocks
10
1430
20
-10
0
VERTEX
8
Blocks
10
1430
20
-149.770114942529
0
VERTEX
8
Blocks
10
10
20
-149.770114942529
0
VERTEX
8
Blocks
10
10
20
-10
0
SEQEND
8
Blocks
0
LINE
8
Stations
10
10
20
-189.770114942529
11
1430
21
-189.770114942529
0
LINE
8
Stations
10
10
20
-305.325670498084
11
1430
21
-305.325670498084
0
LINE
8
Stations
10
10
20
-377.662835249042
11
1430
21
-377.662835249042
0
POLYLINE
8
Blocks
66
1
0
VERTEX
8
Blocks
10
10
20
-189.770114942529
0
VERTEX
8
Blocks
10
1430
20
-189.770114942529
0
VERTEX
8
Blocks
10
1430
20
-377.662835249042
0
VERTEX
8
Blocks
10
10
20
-377.662835249042
0
VERTEX
8
Blocks
10
10
20
-189.770114942529
0
SEQEND
8
Blocks
0
LINE
8
Stations
10
10
20
-417.662835249042
11
1430
21
-417.662835249042
0
LINE
8
Stations
10
10
20
-448.620689655172
11
1430
21
-448.620689655172
0
LINE
8
Stations
10
10
20
-490
11
1430
21
-490
0
POLYLINE
8
Blocks
66
1
0
VERTEX
8
Blocks
10
10
20
-417.662835249042
0
VERTEX
8
Blocks
10
1430
20
-417.662835249042
0
VERTEX
8
Blocks
10
1430
20
-490
0
VERTEX
8
Blocks
10
10
20
-490
0
VERTEX
8
Blocks
10
10
20
-417.662835249042
0
SEQEND
8
Blocks
0
LINE
8
HourTimes
10
10
20
-10
11
10
21
-149.770114942529
0
LINE
8
HourTimes
10
10
20
-189.770114942529
11
10
21
-377.662835249042
0
LINE
8
HourTimes
10
10
20
-417.662835249042
11
10
21
-490
0
LINE
8
Times
10
19.8611111111111
20
-10
11
19.8611111111111
21
-149.770114942529
0
LINE
8
Times
10
19.8611111111111
20
-189.770114942529
11
19.8611111111111
21
-377.662835249042
0
LINE
8
Times
10
19.8611111111111
20
-417.662835249042
11
19.8611111111111
21
-490
0
LINE
8
Times
10
29.7222222222222
20
-10
11
29.7222222222222
21
-149.770114942529
0
LINE
8
Times
10
29.7222222222222
20
-189.770114942529
11
29.7222222222222
21
-377.662835249042
0
LINE
8
Times
10
29.7222222222222
20
-417.662835249042
11
29.7222222222222
21
-490
0
LINE
8
HalfTimes
10
39.5833333333333
20
-10
11
39.5833333333333
21
-149.770114942529
0
LINE
8
HalfTimes
10
39.5833333333333
20
-189.770114942529
11
39.5833333333333
21
-377.662835249042
0
LINE
8
HalfTimes
10
39.5833333333333
20
-417.662835249042
11
39.5833333333333
21
-490
0
LINE
8
Times
10
49.4444444444444
20
-10
11
49.4444444444444
21
-149.770114942529
0
LINE
8
Times
10
49.4444444444444
20
-189.770114942529
11
49.4444444444444
21
-377.662835249042
0
LINE
8
Times
10
49.4444444444444
20
-417.662835249042
11
49.4444444444444
21
-490
0
LINE
8
Times
10
59.3055555555556
20
-10
11
59.3055555555556
21
-149.770114942529
0
LINE
8
Times
10
59.3055555555556
20
-189.770114942529
11
59.3055555555556
21
-377.662835249042
0
LINE
8
Times
10
59.3055555555556
20
-417.662835249042
11
59.3055555555556
21
-490
0
LINE
8
HourTimes
10
69.1666666666667
20
-10
11
69.1666666666667
21
-149.770114942529
0
LINE
8
HourTimes
10
69.1666666666667
20
-189.770114942529
11
69.1666666666667
21
-377.662835249042
0
LINE
8
HourTimes
10
69.1666666666667
20
-417.662835249042
11
69.1666666666667
21
-490
0
LINE
8
Times
10
79.0277777777778
20
-10
11
79.0277777777778
21
-149.770114942529
0
LINE
8
Times
10
79.0277777777778
20
-189.770114942529
11
79.0277777777778
21
-377.662835249042
0
LINE
8
Times
10
79.0277777777778
20
-417.662835249042
11
79.0277777777778
21
-490
0
LINE
8
Times
10
88.8888888888889
20
-10
11
88.8888888888889
21
-149.770114942529
0
LINE
8
Times
10
88.8888888888889
20
-189.770114942529
11
88.8888888888889
21
-377.662835249042
0
LINE
8
Times
10
88.8888888888889
20
-417.662835249042
11
88.8888888888889
21
-490
0
LINE
8
HalfTimes
10
98.75
20
-10
11
98.75
21
-149.770114942529
0
LINE
8
HalfTimes
10
98.75
20
-189.770114942529
11
98.75
21
-377.662835249042
0
LINE
8
HalfTimes
10
98.75
20
-417.662835249042
11
98.75
21
-490
0
LINE
8
Times
10
108.611111111111
20
-10
11
108.611111111111
21
-149.770114942529
0
LINE
8
Times
10
108.611111111111
20
-189.770114942529
11
108.611111111111
21
-377.662835249042
0
LINE
8
Times
10
108.611111111111
20
-417.662835249042
11
108.611111111111
21
-490
0
LINE
8
Times
10
118.472222222222
20
-10
11
118.472222222222
21
-149.770114942529
0
LINE
8
Times
10
118.472222222222
20
-189.770114942529
11
118.472222222222
21
-377.662835249042
0
LINE
8
Times
10
118.472222222222
20
-417.662835249042
11
118.472222222222
21
-490
0
LINE
8
HourTimes
10
128.333333333333
20
-10
11
128.333333333333
21
-149.770114942529
0
LINE
8
HourTimes
10
128.333333333333
20
-189.770114942529
11
128.333333333333
21
-377.662835249042
0
LINE
8
HourTimes
10
128.333333333333
20
-417.662835249042
11
128.333333333333
21
-490
0
LINE
8
Times
10
138.194444444444
20
-10
11
138.194444444444
21
-149.770114942529
0
LINE
8
Times
10
138.194444444444
20
-189.770114942529
11
138.194444444444
21
-377.662835249042
0
LINE
8
Times
10
138.194444444444
20
-417.662835249042
11
138.194444444444
21
-490
0
LINE
8
Times
10
148.055555555556
20
-10
11
148.055555555556
21
-149.770114942529
0
LINE
8
Times
10
148.055555555556
20
-189.770114942529
11
148.055555555556
21
-377.662835249042
0
LINE
8
Times
10
148.055555555556
20
-417.662835249042
11
148.055555555556
21
-490
0
LINE
8
HalfTimes
10
157.916666666667
20
-10
11
157.916666666667
21
-149.770114942529
0
LINE
8
HalfTimes
10
157.916666666667
20
-189.770114942529
11
157.916666666667
21
-377.662835249042
0
LINE
8
HalfTimes
10
157.916666666667
20
-417.662835249042
11
157.916666666667
21
-490
0
LINE
8
Times
10
167.777777777778
20
-10
11
167.777777777778
21
-149.770114942529
0
LINE
8
Times
10
167.777777777778
20
-189.770114942529
11
167.777777777778
21
-377.662835249042
0
LINE
8
Times
10
167.777777777778
20
-417.662835249042
11
167.777777777778
21
-490
0
LINE
8
Times
10
177.638888888889
20
-10
11
177.638888888889
21
-149.770114942529
0
LINE
8
Times
10
177.638888888889
20
-189.770114942529
11
177.638888888889
21
-377.662835249042
0
LINE
8
Times
10
177.638888888889
20
-417.662835249042
11
177.638888888889
21
-490
0
LINE
8
HourTimes
10
187.5
20
-10
11
187.5
21
-149.770114942529
0
LINE
8
HourTimes
10
187.5
20
-189.770114942529
11
187.5
21
-377.662835249042
0
LINE
8
HourTimes
10
187.5
20
-417.662835249042
11
187.5
21
-490
0
LINE
8
Times
10
197.361111111111
20
-10
11
197.361111111111
21
-149.770114942529
0
LINE
8
Times
10
197.361111111111
20
-189.770114942529
11
197.361111111111
21
-377.662835249042
0
LINE
8
Times
10
197.361111111111
20
-417.662835249042
11
197.361111111111
21
-490
0
LINE
8
Times
10
207.222222222222
20
-10
11
207.222222222222
21
-149.770114942529
0
LINE
8
Times
10
207.222222222222
20
-189.770114942529
11
207.222222222222
21
-377.662835249042
0
LINE
8
Times
10
207.222222222222
20
-417.662835249042
11
207.222222222222
21
-490
0
LINE
8
HalfTimes
10
217.083333333333
20
-10
11
217.083333333333
21
-149.770114942529
0
LINE
8
HalfTimes
10
217.083333333333
20
-189.770114942529
11
217.083333333333
21
-377.662835249042
0
LINE
8
HalfTimes
10
217.083333333333
20
-417.662835249042
11
217.083333333333
21
-490
0
LINE
8
Times
10
226.944444444444
20
-10
11
226.944444444444
21
-149.770114942529
0
LINE
8
Times
10
226.944444444444
20
-189.770114942529
11
226.944444444444
21
-377.662835249042
0
LINE
8
Times
10
226.944444444444
20
-417.662835249042
11
226.944444444444
21
-490
0
LINE
8
Times
10
236.805555555556
20
-10
11
236.805555555556
21
-149.770114942529
0
LINE
8
Times
10
236.805555555556
20
-189.770114942529
11
236.805555555556
21
-377.662835249042
0
LINE
8
Times
10
236.805555555556
20
-417.662835249042
11
236.805555555556
21
-490
0
LINE
8
HourTimes
10
246.666666666667
20
-10
11
246.666666666667
21
-149.770114942529
0
LINE
8
HourTimes
10
246.666666666667
20
-189.770114942529
11
246.666666666667
21
-377.662835249042
0
LINE
8
HourTimes
10
246.666666666667
20
-417.662835249042
11
246.666666666667
21
-490
0
LINE
8
Times
10
256.527777777778
20
-10
11
256.527777777778
21
-149.770114942529
0
LINE
8
Times
10
256.527777777778
20
-189.770114942529
11
256.527777777778
21
-377.662835249042
0
LINE
8
Times
10
256.527777777778
20
-417.662835249042
11
256.527777777778
21
-490
0
LINE
8
Times
10
266.388888888889
20
-10
11
266.388888888889
21
-149.770114942529
0
LINE
8
Times
10
266.388888888889
20
-189.770114942529
11
266.388888888889
21
-377.662835249042
0
LINE
8
Times
10
266.388888888889
20
-417.662835249042
11
266.388888888889
21
-490
0
LINE
8
HalfTimes
10
276.25
20
-10
11
276.25
21
-149.770114942529
0
LINE
8
HalfTimes
10
276.25
20
-189.770114942529
11
276.25
21
-377.662835249042
0
LINE
8
HalfTimes
10
276.25
20
-417.662835249042
11
276.25
21
-490
0
LINE
8
Times
10
286.111111111111
20
-10
11
286.111111111111
21
-149.770114942529
0
LINE
8
Times
10
286.111111111111
20
-189.770114942529
11
286.111111111111
21
-377.662835249042
0
LINE
8
Times
10
286.111111111111
20
-417.662835249042
11
286.111111111111
21
-490
0
LINE
8
Times
10
295.972222222222
20
-10
11
295.972222222222
21
-149.770114942529
0
LINE
8
Times
10
295.972222222222
20
-189.770114942529
11
295.972222222222
21
-377.662835249042
0
LINE
8
Times
10
295.972222222222
20
-417.662835249042
11
295.972222222222
21
-490
0
LINE
8
HourTimes
10
305.833333333333
20
-10
11
305.833333333333
21
-149.770114942529
0
LINE
8
HourTimes
10
305.833333333333
20
-189.770114942529
11
305.833333333333
21
-377.662835249042
0
LINE
8
HourTimes
10
305.833333333333
20
-417.662835249042
11
305.833333333333
21
-490
0
LINE
8
Times
10
315.694444444444
20
-10
11
315.694444444444
21
-149.770114942529
0
LINE
8
Times
10
315.694444444444
20
-189.770114942529
11
315.694444444444
21
-377.662835249042
0
LINE
8
Times
10
315.694444444444
20
-417.662835249042
11
315.694444444444
21
-490
0
LINE
8
Times
10
325.555555555556
20
-10
11
325.555555555556
21
-149.770114942529
0
LINE
8
Times
10
325.555555555556
20
-189.770114942529
11
325.555555555556
21
-377.662835249042
0
LINE
8
Times
10
325.555555555556
20
-417.662835249042
11
325.555555555556
21
-490
0
LINE
8
HalfTimes
10
335.416666666667
20
-10
11
335.416666666667
21
-149.770114942529
0
LINE
8
HalfTimes
10
335.416666666667
20
-189.770114942529
11
335.416666666667
21
-377.662835249042
0
LINE
8
HalfTimes
10
335.416666666667
20
-417.662835249042
11
335.416666666667
21
-490
0
LINE
8
Times
10
345.277777777778
20
-10
11
345.277777777778
21
-149.770114942529
0
LINE
8
Times
10
345.277777777778
20
-189.770114942529
11
345.277777777778
21
-377.662835249042
0
LINE
8
Times
10
345.277777777778
20
-417.662835249042
11
345.277777777778
21
-490
0
LINE
8
Times
10
355.138888888889
20
-10
11
355.138888888889
21
-149.770114942529
0
LINE
8
Times
10
355.138888888889
20
-189.770114942529
11
355.138888888889
21
-377.662835249042
0
LINE
8
Times
10
355.138888888889
20
-417.662835249042
11
355.138888888889
21
-490
0
LINE
8
HourTimes
10
365
20
-10
11
365
21
-149.770114942529
0
LINE
8
HourTimes
10
365
20
-189.770114942529
11
365
21
-377.662835249042
0
LINE
8
HourTimes
10
365
20
-417.662835249042
11
365
21
-490
0
LINE
8
Times
10
374.861111111111
20
-10
11
374.861111111111
21
-149.770114942529
0
LINE
8
Times
10
374.861111111111
20
-189.770114942529
11
374.861111111111
21
-377.662835249042
0
LINE
8
Times
10
374.861111111111
20
-417.662835249042
11
374.861111111111
21
-490
0
LINE
8
Times
10
384.722222222222
20
-10
11
384.722222222222
21
-149.770114942529
0
LINE
8
Times
10
384.722222222222
20
-189.770114942529
11
384.722222222222
21
-377.662835249042
0
LINE
8
Times
10
384.722222222222
20
-417.662835249042
11
384.722222222222
21
-490
0
LINE
8
HalfTimes
10
394.583333333333
20
-10
11
394.583333333333
21
-149.770114942529
0
LINE
8
HalfTimes
10
394.583333333333
20
-189.770114942529
11
394.583333333333
21
-377.662835249042
0
LINE
8
HalfTimes
10
394.583333333333
20
-417.662835249042
11
394.583333333333
21
-490
0
LINE
8
Times
10
404.444444444444
20
-10
11
404.444444444444
21
-149.770114942529
0
LINE
8
Times
10
404.444444444444
20
-189.770114942529
11
404.444444444444
21
-377.662835249042
0
LINE
8
Times
10
404.444444444444
20
-417.662835249042
11
404.444444444444
21
-490
0
LINE
8
Times
10
414.305555555556
20
-10
11
414.305555555556
21
-149.770114942529
0
LINE
8
Times
10
414.305555555556
20
-189.770114942529
11
414.305555555556
21
-377.662835249042
0
LINE
8
Times
10
414.305555555556
20
-417.662835249042
11
414.305555555556
21
-490
0
LINE
8
HourTimes
10
424.166666666667
20
-10
11
424.166666666667
21
-149.770114942529
0
LINE
8
HourTimes
10
424.166666666667
20
-189.770114942529
11
424.166666666667
21
-377.662835249042
0
LINE
8
HourTimes
10
424.166666666667
20
-417.662835249042
11
424.166666666667
21
-490
0
LINE
8
Times
10
434.027777777778
20
-10
11
434.027777777778
21
-149.770114942529
0
LINE
8
Times
10
434.027777777778
20
-189.770114942529
11
434.027777777778
21
-377.662835249042
0
LINE
8
Times
10
434.027777777778
20
-417.662835249042
11
434.027777777778
21
-490
0
LINE
8
Times
10
443.888888888889
20
-10
11
443.888888888889
21
-149.770114942529
0
LINE
8
Times
10
443.888888888889
20
-189.770114942529
11
443.888888888889
21
-377.662835249042
0
LINE
8
Times
10
443.888888888889
20
-417.662835249042
11
443.888888888889
21
-490
0
LINE
8
HalfTimes
10
453.75
20
-10
11
453.75
21
-149.770114942529
0
LINE
8
HalfTimes
10
453.75
20
-189.770114942529
11
453.75
21
-377.662835249042
0
LINE
8
HalfTimes
10
453.75
20
-417.662835249042
11
453.75
21
-490
0
LINE
8
Times
10
463.611111111111
20
-10
11
463.611111111111
21
-149.770114942529
0
LINE
8
Times
10
463.611111111111
20
-189.770114942529
11
463.611111111111
21
-377.662835249042
0
LINE
8
Times
10
463.611111111111
20
-417.662835249042
11
463.611111111111
21
-490
0
LINE
8
Times
10
473.472222222222
20
-10
11
473.472222222222
21
-149.770114942529
0
LINE
8
Times
10
473.472222222222
20
-189.770114942529
11
473.472222222222
21
-377.662835249042
0
LINE
8
Times
10
473.472222222222
20
-417.662835249042
11
473.472222222222
21
-490
0
LINE
8
HourTimes
10
483.333333333333
20
-10
11
483.333333333333
21
-149.770114942529
0
LINE
8
HourTimes
10
483.333333333333
20
-189.770114942529
11
483.333333333333
21
-377.662835249042
0
LINE
8
HourTimes
10
483.333333333333
20
-417.662835249042
11
483.333333333333
21
-490
0
LINE
8
Times
10
493.194444444444
20
-10
11
493.194444444444
21
-149.770114942529
0
LINE
8
Times
10
493.194444444444
20
-189.770114942529
11
493.194444444444
21
-377.662835249042
0
LINE
8
Times
10
493.194444444444
20
-417.662835249042
11
493.194444444444
21
-490
0
LINE
8
Times
10
503.055555555556
20
-10
11
503.055555555556
21
-149.770114942529
0
LINE
8
Times
10
503.055555555556
20
-189.770114942529
11
503.055555555556
21
-377.662835249042
0
LINE
8
Times
10
503.055555555556
20
-417.662835249042
11
503.055555555556
21
-490
0
LINE
8
HalfTimes
10
512.916666666667
20
-10
11
512.916666666667
21
-149.770114942529
0
LINE
8
HalfTimes
10
512.916666666667
20
-189.770114942529
11
512.916666666667
21
-377.662835249042
0
LINE
8
HalfTimes
10
512.916666666667
20
-417.662835249042
11
512.916666666667
21
-490
0
LINE
8
Times
10
522.777777777778
20
-10
11
522.777777777778
21
-149.770114942529
0
LINE
8
Times
10
522.777777777778
20
-189.770114942529
11
522.777777777778
21
-377.662835249042
0
LINE
8
Times
10
522.777777777778
20
-417.662835249042
11
522.777777777778
21
-490
0
LINE
8
Times
10
532.638888888889
20
-10
11
532.638888888889
21
-149.770114942529
0
LINE
8
Times
10
532.638888888889
20
-189.770114942529
11
532.638888888889
21
-377.662835249042
0
LINE
8
Times
10
532.638888888889
20
-417.662835249042
11
532.638888888889
21
-490
0
LINE
8
HourTimes
10
542.5
20
-10
11
542.5
21
-149.770114942529
0
LINE
8
HourTimes
10
542.5
20
-189.770114942529
11
542.5
21
-377.662835249042
0
LINE
8
HourTimes
10
542.5
20
-417.662835249042
11
542.5
21
-490
0
LINE
8
Times
10
552.361111111111
20
-10
11
552.361111111111
21
-149.770114942529
0
LINE
8
Times
10
552.361111111111
20
-189.770114942529
11
552.361111111111
21
-377.662835249042
0
LINE
8
Times
10
552.361111111111
20
-417.662835249042
11
552.361111111111
21
-490
0
LINE
8
Times
10
562.222222222222
20
-10
11
562.222222222222
21
-149.770114942529
0
LINE
8
Times
10
562.222222222222
20
-189.770114942529
11
562.222222222222
21
-377.662835249042
0
LINE
8
Times
10
562.222222222222
20
-417.662835249042
11
562.222222222222
21
-490
0
LINE
8
HalfTimes
10
572.083333333333
20
-10
11
572.083333333333
21
-149.770114942529
0
LINE
8
HalfTimes
10
572.083333333333
20
-189.770114942529
11
572.083333333333
21
-377.662835249042
0
LINE
8
HalfTimes
10
572.083333333333
20
-417.662835249042
11
572.083333333333
21
-490
0
LINE
8
Times
10
581.944444444444
20
-10
11
581.944444444444
21
-149.770114942529
0
LINE
8
Times
10
581.944444444444
20
-189.770114942529
11
581.944444444444
21
-377.662835249042
0
LINE
8
Times
10
581.944444444444
20
-417.662835249042
11
581.944444444444
21
-490
0
LINE
8
Times
10
591.805555555556
20
-10
11
591.805555555556
21
-149.770114942529
0
LINE
8
Times
10
591.805555555556
20
-189.770114942529
11
591.805555555556
21
-377.662835249042
0
LINE
8
Times
10
591.805555555556
20
-417.662835249042
11
591.805555555556
21
-490
0
LINE
8
HourTimes
10
601.666666666667
20
-10
11
601.666666666667
21
-149.770114942529
0
LINE
8
HourTimes
10
601.666666666667
20
-189.770114942529
11
601.666666666667
21
-377.662835249042
0
LINE
8
HourTimes
10
601.666666666667
20
-417.662835249042
11
601.666666666667
21
-490
0
LINE
8
Times
10
611.527777777778
20
-10
11
611.527777777778
21
-149.770114942529
0
LINE
8
Times
10
611.527777777778
20
-189.770114942529
11
611.527777777778
21
-377.662835249042
0
LINE
8
Times
10
611.527777777778
20
-417.662835249042
11
611.527777777778
21
-490
0
LINE
8
Times
10
621.388888888889
20
-10
11
621.388888888889
21
-149.770114942529
0
LINE
8
Times
10
621.388888888889
20
-189.770114942529
11
621.388888888889
21
-377.662835249042
0
LINE
8
Times
10
621.388888888889
20
-417.662835249042
11
621.388888888889
21
-490
0
LINE
8
HalfTimes
10
631.25
20
-10
11
631.25
21
-149.770114942529
0
LINE
8
HalfTimes
10
631.25
20
-189.770114942529
11
631.25
21
-377.662835249042
0
LINE
8
HalfTimes
10
631.25
20
-417.662835249042
11
631.25
21
-490
0
LINE
8
Times
10
641.111111111111
20
-10
11
641.111111111111
21
-149.770114942529
0
LINE
8
Times
10
641.111111111111
20
-189.770114942529
11
641.111111111111
21
-377.662835249042
0
LINE
8
Times
10
641.111111111111
20
-417.662835249042
11
641.111111111111
21
-490
0
LINE
8
Times
10
650.972222222222
20
-10
11
650.972222222222
21
-149.770114942529
0
LINE
8
Times
10
650.972222222222
20
-189.770114942529
11
650.972222222222
21
-377.662835249042
0
LINE
8
Times
10
650.972222222222
20
-417.662835249042
11
650.972222222222
21
-490
0
LINE
8
HourTimes
10
660.833333333333
20
-10
11
660.833333333333
21
-149.770114942529
0
LINE
8
HourTimes
10
660.833333333333
20
-189.770114942529
11
660.833333333333
21
-377.662835249042
0
LINE
8
HourTimes
10
660.833333333333
20
-417.662835249042
11
660.833333333333
21
-490
0
LINE
8
Times
10
670.694444444444
20
-10
11
670.694444444444
21
-149.770114942529
0
LINE
8
Times
10
670.694444444444
20
-189.770114942529
11
670.694444444444
21
-377.662835249042
0
LINE
8
Times
10
670.694444444444
20
-417.662835249042
11
670.694444444444
21
-490
0
LINE
8
Times
10
680.555555555556
20
-10
11
680.555555555556
21
-149.770114942529
0
LINE
8
Times
10
680.555555555556
20
-189.770114942529
11
680.555555555556
21
-377.662835249042
0
LINE
8
Times
10
680.555555555556
20
-417.662835249042
11
680.555555555556
21
-490
0
LINE
8
HalfTimes
10
690.416666666667
20
-10
11
690.416666666667
21
-149.770114942529
0
LINE
8
HalfTimes
10
690.416666666667
20
-189.770114942529
11
690.416666666667
21
-377.662835249042
0
LINE
8
HalfTimes
10
690.416666666667
20
-417.662835249042
11
690.416666666667
21
-490
0
LINE
8
Times
10
700.277777777778
20
-10
11
700.277777777778
21
-149.770114942529
0
LINE
8
Times
10
700.277777777778
20
-189.770114942529
11
700.277777777778
21
-377.662835249042
0
LINE
8
Times
10
700.277777777778
20
-417.662835249042
11
700.277777777778
21
-490
0
LINE
8
Times
10
710.138888888889
20
-10
11
710.138888888889
21
-149.770114942529
0
LINE
8
Times
10
710.138888888889
20
-189.770114942529
11
710.138888888889
21
-377.662835249042
0
LINE
8
Times
10
710.138888888889
20
-417.662835249042
11
710.138888888889
21
-490
0
LINE
8
HourTimes
10
720
20
-10
11
720
21
-149.770114942529
0
LINE
8
HourTimes
10
720
20
-189.770114942529
11
720
21
-377.662835249042
0
LINE
8
HourTimes
10
720
20
-417.662835249042
11
720
21
-490
0
LINE
8
Times
10
729.861111111111
20
-10
11
729.861111111111
21
-149.770114942529
0
LINE
8
Times
10
729.861111111111
20
-189.770114942529
11
729.861111111111
21
-377.662835249042
0
LINE
8
Times
10
729.861111111111
20
-417.662835249042
11
729.861111111111
21
-490
0
LINE
8
Times
10
739.722222222222
20
-10
11
739.722222222222
21
-149.770114942529
0
LINE
8
Times
10
739.722222222222
20
-189.770114942529
11
739.722222222222
21
-377.662835249042
0
LINE
8
Times
10
739.722222222222
20
-417.662835249042
11
739.722222222222
21
-490
0
LINE
8
HalfTimes
10
749.583333333333
20
-10
11
749.583333333333
21
-149.770114942529
0
LINE
8
HalfTimes
10
749.583333333333
20
-189.770114942529
11
749.583333333333
21
-377.662835249042
0
LINE
8
HalfTimes
10
749.583333333333
20
-417.662835249042
11
749.583333333333
21
-490
0
LINE
8
Times
10
759.444444444444
20
-10
11
759.444444444444
21
-149.770114942529
0
LINE
8
Times
10
759.444444444444
20
-189.770114942529
11
759.444444444444
21
-377.662835249042
0
LINE
8
Times
10
759.444444444444
20
-417.662835249042
11
759.444444444444
21
-490
0
LINE
8
Times
10
769.305555555556
20
-10
11
769.305555555556
21
-149.770114942529
0
LINE
8
Times
10
769.305555555556
20
-189.770114942529
11
769.305555555556
21
-377.662835249042
0
LINE
8
Times
10
769.305555555556
20
-417.662835249042
11
769.305555555556
21
-490
0
LINE
8
HourTimes
10
779.166666666667
20
-10
11
779.166666666667
21
-149.770114942529
0
LINE
8
HourTimes
10
779.166666666667
20
-189.770114942529
11
779.166666666667
21
-377.662835249042
0
LINE
8
HourTimes
10
779.166666666667
20
-417.662835249042
11
779.166666666667
21
-490
0
LINE
8
Times
10
789.027777777778
20
-10
11
789.027777777778
21
-149.770114942529
0
LINE
8
Times
10
789.027777777778
20
-189.770114942529
11
789.027777777778
21
-377.662835249042
0
LINE
8
Times
10
789.027777777778
20
-417.662835249042
11
789.027777777778
21
-490
0
LINE
8
Times
10
798.888888888889
20
-10
11
798.888888888889
21
-149.770114942529
0
LINE
8
Times
10
798.888888888889
20
-189.770114942529
11
798.888888888889
21
-377.662835249042
0
LINE
8
Times
10
798.888888888889
20
-417.662835249042
11
798.888888888889
21
-490
0
LINE
8
HalfTimes
10
808.75
20
-10
11
808.75
21
-149.770114942529
0
LINE
8
HalfTimes
10
808.75
20
-189.770114942529
11
808.75
21
-377.662835249042
0
LINE
8
HalfTimes
10
808.75
20
-417.662835249042
11
808.75
21
-490
0
LINE
8
Times
10
818.611111111111
20
-10
11
818.611111111111
21
-149.770114942529
0
LINE
8
Times
10
818.611111111111
20
-189.770114942529
11
818.611111111111
21
-377.662835249042
0
LINE
8
Times
10
818.611111111111
20
-417.662835249042
11
818.611111111111
21
-490
0
LINE
8
Times
10
828.472222222222
20
-10
11
828.472222222222
21
-149.770114942529
0
LINE
8
Times
10
828.472222222222
20
-189.770114942529
11
828.472222222222
21
-377.662835249042
0
LINE
8
Times
10
828.472222222222
20
-417.662835249042
11
828.472222222222
21
-490
0
LINE
8
HourTimes
10
838.333333333333
20
-10
11
838.333333333333
21
-149.770114942529
0
LINE
8
HourTimes
10
838.333333333333
20
-189.770114942529
11
838.333333333333
21
-377.662835249042
0
LINE
8
HourTimes
10
838.333333333333
20
-417.662835249042
11
838.333333333333
21
-490
0
LINE
8
Times
10
848.194444444444
20
-10
11
848.194444444444
21
-149.770114942529
0
LINE
8
Times
10
848.194444444444
20
-189.770114942529
11
848.194444444444
21
-377.662835249042
0
LINE
8
Times
10
848.194444444444
20
-417.662835249042
11
848.194444444444
21
-490
0
LINE
8
Times
10
858.055555555556
20
-10
11
858.055555555556
21
-149.770114942529
0
LINE
8
Times
10
858.055555555556
20
-189.770114942529
11
858.055555555556
21
-377.662835249042
0
LINE
8
Times
10
858.055555555556
20
-417.662835249042
11
858.055555555556
21
-490
0
LINE
8
HalfTimes
10
867.916666666667
20
-10
11
867.916666666667
21
-149.770114942529
0
LINE
8
HalfTimes
10
867.916666666667
20
-189.770114942529
11
867.916666666667
21
-377.662835249042
0
LINE
8
HalfTimes
10
867.916666666667
20
-417.662835249042
11
867.916666666667
21
-490
0
LINE
8
Times
10
877.777777777778
20
-10
11
877.777777777778
21
-149.770114942529
0
LINE
8
Times
10
877.777777777778
20
-189.770114942529
11
877.777777777778
21
-377.662835249042
0
LINE
8
Times
10
877.777777777778
20
-417.662835249042
11
877.777777777778
21
-490
0
LINE
8
Times
10
887.638888888889
20
-10
11
887.638888888889
21
-149.770114942529
0
LINE
8
Times
10
887.638888888889
20
-189.770114942529
11
887.638888888889
21
-377.662835249042
0
LINE
8
Times
10
887.638888888889
20
-417.662835249042
11
887.638888888889
21
-490
0
LINE
8
HourTimes
10
897.5
20
-10
11
897.5
21
-149.770114942529
0
LINE
8
HourTimes
10
897.5
20
-189.770114942529
11
897.5
21
-377.662835249042
0
LINE
8
HourTimes
10
897.5
20
-417.662835249042
11
897.5
21
-490
0
LINE
8
Times
10
907.361111111111
20
-10
11
907.361111111111
21
-149.770114942529
0
LINE
8
Times
10
907.361111111111
20
-189.770114942529
11
907.361111111111
21
-377.662835249042
0
LINE
8
Times
10
907.361111111111
20
-417.662835249042
11
907.361111111111
21
-490
0
LINE
8
Times
10
917.222222222222
20
-10
11
917.222222222222
21
-149.770114942529
0
LINE
8
Times
10
917.222222222222
20
-189.770114942529
11
917.222222222222
21
-377.662835249042
0
LINE
8
Times
10
917.222222222222
20
-417.662835249042
11
917.222222222222
21
-490
0
LINE
8
HalfTimes
10
927.083333333333
20
-10
11
927.083333333333
21
-149.770114942529
0
LINE
8
HalfTimes
10
927.083333333333
20
-189.770114942529
11
927.083333333333
21
-377.662835249042
0
LINE
8
HalfTimes
10
927.083333333333
20
-417.662835249042
11
927.083333333333
21
-490
0
LINE
8
Times
10
936.944444444444
20
-10
11
936.944444444444
21
-149.770114942529
0
LINE
8
Times
10
936.944444444444
20
-189.770114942529
11
936.944444444444
21
-377.662835249042
0
LINE
8
Times
10
936.944444444444
20
-417.662835249042
11
936.944444444444
21
-490
0
LINE
8
Times
10
946.805555555556
20
-10
11
946.805555555556
21
-149.770114942529
0
LINE
8
Times
10
946.805555555556
20
-189.770114942529
11
946.805555555556
21
-377.662835249042
0
LINE
8
Times
10
946.805555555556
20
-417.662835249042
11
946.805555555556
21
-490
0
LINE
8
HourTimes
10
956.666666666667
20
-10
11
956.666666666667
21
-149.770114942529
0
LINE
8
HourTimes
10
956.666666666667
20
-189.770114942529
11
956.666666666667
21
-377.662835249042
0
LINE
8
HourTimes
10
956.666666666667
20
-417.662835249042
11
956.666666666667
21
-490
0
LINE
8
Times
10
966.527777777778
20
-10
11
966.527777777778
21
-149.770114942529
0
LINE
8
Times
10
966.527777777778
20
-189.770114942529
11
966.527777777778
21
-377.662835249042
0
LINE
8
Times
10
966.527777777778
20
-417.662835249042
11
966.527777777778
21
-490
0
LINE
8
Times
10
976.388888888889
20
-10
11
976.388888888889
21
-149.770114942529
0
LINE
8
Times
10
976.388888888889
20
-189.770114942529
11
976.388888888889
21
-377.662835249042
0
LINE
8
Times
10
976.388888888889
20
-417.662835249042
11
976.388888888889
21
-490
0
LINE
8
HalfTimes
10
986.25
20
-10
11
986.25
21
-149.770114942529
0
LINE
8
HalfTimes
10
986.25
20
-189.770114942529
11
986.25
21
-377.662835249042
0
LINE
8
HalfTimes
10
986.25
20
-417.662835249042
11
986.25
21
-490
0
LINE
8
Times
10
996.111111111111
20
-10
11
996.111111111111
21
-149.770114942529
0
LINE
8
Times
10
996.111111111111
20
-189.770114942529
11
996.111111111111
21
-377.662835249042
0
LINE
8
Times
10
996.111111111111
20
-417.662835249042
11
996.111111111111
21
-490
0
LINE
8
Times
10
1005.97222222222
20
-10
11
1005.97222222222
21
-149.770114942529
0
LINE
8
Times
10
1005.97222222222
20
-189.770114942529
11
1005.97222222222
21
-377.662835249042
0
LINE
8
Times
10
1005.97222222222
20
-417.662835249042
11
1005.97222222222
21
-490
0
LINE
8
HourTimes
10
1015.83333333333
20
-10
11
1015.83333333333
21
-149.770114942529
0
LINE
8
HourTimes
10
1015.83333333333
20
-189.770114942529
11
1015.83333333333
21
-377.662835249042
0
LINE
8
HourTimes
10
1015.83333333333
20
-417.662835249042
11
1015.83333333333
21
-490
0
LINE
8
Times
10
1025.69444444444
20
-10
11
1025.69444444444
21
-149.770114942529
0
LINE
8
Times
10
1025.69444444444
20
-189.770114942529
11
1025.69444444444
21
-377.662835249042
0
LINE
8
Times
10
1025.69444444444
20
-417.662835249042
11
1025.69444444444
21
-490
0
LINE
8
Times
10
1035.55555555556
20
-10
11
1035.55555555556
21
-149.770114942529
0
LINE
8
Times
10
1035.55555555556
20
-189.770114942529
11
1035.55555555556
21
-377.662835249042
0
LINE
8
Times
10
1035.55555555556
20
-417.662835249042
11
1035.55555555556
21
-490
0
LINE
8
HalfTimes
10
1045.41666666667
20
-10
11
1045.41666666667
21
-149.770114942529
0
LINE
8
HalfTimes
10
1045.41666666667
20
-189.770114942529
11
1045.41666666667
21
-377.662835249042
0
LINE
8
HalfTimes
10
1045.41666666667
20
-417.662835249042
11
1045.41666666667
21
-490
0
LINE
8
Times
10
1055.27777777778
20
-10
11
1055.27777777778
21
-149.770114942529
0
LINE
8
Times
10
1055.27777777778
20
-189.770114942529
11
1055.27777777778
21
-377.662835249042
0
LINE
8
Times
10
1055.27777777778
20
-417.662835249042
11
1055.27777777778
21
-490
0
LINE
8
Times
10
1065.13888888889
20
-10
11
1065.13888888889
21
-149.770114942529
0
LINE
8
Times
10
1065.13888888889
20
-189.770114942529
11
1065.13888888889
21
-377.662835249042
0
LINE
8
Times
10
1065.13888888889
20
-417.662835249042
11
1065.13888888889
21
-490
0
LINE
8
HourTimes
10
1075
20
-10
11
1075
21
-149.770114942529
0
LINE
8
HourTimes
10
1075
20
-189.770114942529
11
1075
21
-377.662835249042
0
LINE
8
HourTimes
10
1075
20
-417.662835249042
11
1075
21
-490
0
LINE
8
Times
10
1084.86111111111
20
-10
11
1084.86111111111
21
-149.770114942529
0
LINE
8
Times
10
1084.86111111111
20
-189.770114942529
11
1084.86111111111
21
-377.662835249042
0
LINE
8
Times
10
1084.86111111111
20
-417.662835249042
11
1084.86111111111
21
-490
0
LINE
8
Times
10
1094.72222222222
20
-10
11
1094.72222222222
21
-149.770114942529
0
LINE
8
Times
10
1094.72222222222
20
-189.770114942529
11
1094.72222222222
21
-377.662835249042
0
LINE
8
Times
10
1094.72222222222
20
-417.662835249042
11
1094.72222222222
21
-490
0
LINE
8
HalfTimes
10
1104.58333333333
20
-10
11
1104.58333333333
21
-149.770114942529
0
LINE
8
HalfTimes
10
1104.58333333333
20
-189.770114942529
11
1104.58333333333
21
-377.662835249042
0
LINE
8
HalfTimes
10
1104.58333333333
20
-417.662835249042
11
1104.58333333333
21
-490
0
LINE
8
Times
10
1114.44444444444
20
-10
11
1114.44444444444
21
-149.770114942529
0
LINE
8
Times
10
1114.44444444444
20
-189.770114942529
11
1114.44444444444
21
-377.662835249042
0
LINE
8
Times
10
1114.44444444444
20
-417.662835249042
11
1114.44444444444
21
-490
0
LINE
8
Times
10
1124.30555555556
20
-10
11
1124.30555555556
21
-149.770114942529
0
LINE
8
Times
10
1124.30555555556
20
-189.770114942529
11
1124.30555555556
21
-377.662835249042
0
LINE
8
Times
10
1124.30555555556
20
-417.662835249042
11
1124.30555555556
21
-490
0
LINE
8
HourTimes
10
1134.16666666667
20
-10
11
1134.16666666667
21
-149.770114942529
0
LINE
8
HourTimes
10
1134.16666666667
20
-189.770114942529
11
1134.16666666667
21
-377.662835249042
0
LINE
8
HourTimes
10
1134.16666666667
20
-417.662835249042
11
1134.16666666667
21
-490
0
LINE
8
Times
10
1144.02777777778
20
-10
11
1144.02777777778
21
-149.770114942529
0
LINE
8
Times
10
1144.02777777778
20
-189.770114942529
11
1144.02777777778
21
-377.662835249042
0
LINE
8
Times
10
1144.02777777778
20
-417.662835249042
11
1144.02777777778
21
-490
0
LINE
8
Times
10
1153.88888888889
20
-10
11
1153.88888888889
21
-149.770114942529
0
LINE
8
Times
10
1153.88888888889
20
-189.770114942529
11
1153.88888888889
21
-377.662835249042
0
LINE
8
Times
10
1153.88888888889
20
-417.662835249042
11
1153.88888888889
21
-490
0
LINE
8
HalfTimes
10
1163.75
20
-10
11
1163.75
21
-149.770114942529
0
LINE
8
HalfTimes
10
1163.75
20
-189.770114942529
11
1163.75
21
-377.662835249042
0
LINE
8
HalfTimes
10
1163.75
20
-417.662835249042
11
1163.75
21
-490
0
LINE
8
Times
10
1173.61111111111
20
-10
11
1173.61111111111
21
-149.770114942529
0
LINE
8
Times
10
1173.61111111111
20
-189.770114942529
11
1173.61111111111
21
-377.662835249042
0
LINE
8
Times
10
1173.61111111111
20
-417.662835249042
11
1173.61111111111
21
-490
0
LINE
8
Times
10
1183.47222222222
20
-10
11
1183.47222222222
21
-149.770114942529
0
LINE
8
Times
10
1183.47222222222
20
-189.770114942529
11
1183.47222222222
21
-377.662835249042
0
LINE
8
Times
10
1183.47222222222
20
-417.662835249042
11
1183.47222222222
21
-490
0
LINE
8
HourTimes
10
1193.33333333333
20
-10
11
1193.33333333333
21
-149.770114942529
0
LINE
8
HourTimes
10
1193.33333333333
20
-189.770114942529
11
1193.33333333333
21
-377.662835249042
0
LINE
8
HourTimes
10
1193.33333333333
20
-417.662835249042
11
1193.33333333333
21
-490
0
LINE
8
Times
10
1203.19444444444
20
-10
11
1203.19444444444
21
-149.770114942529
0
LINE
8
Times
10
1203.19444444444
20
-189.770114942529
11
1203.19444444444
21
-377.662835249042
0
LINE
8
Times
10
1203.19444444444
20
-417.662835249042
11
1203.19444444444
21
-490
0
LINE
8
Times
10
1213.05555555556
20
-10
11
1213.05555555556
21
-149.770114942529
0
LINE
8
Times
10
1213.05555555556
20
-189.770114942529
11
1213.05555555556
21
-377.662835249042
0
LINE
8
Times
10
1213.05555555556
20
-417.662835249042
11
1213.05555555556
21
-490
0
LINE
8
HalfTimes
10
1222.91666666667
20
-10
11
1222.91666666667
21
-149.770114942529
0
LINE
8
HalfTimes
10
1222.91666666667
20
-189.770114942529
11
1222.91666666667
21
-377.662835249042
0
LINE
8
HalfTimes
10
1222.91666666667
20
-417.662835249042
11
1222.91666666667
21
-490
0
LINE
8
Times
10
1232.77777777778
20
-10
11
1232.77777777778
21
-149.770114942529
0
LINE
8
Times
10
1232.77777777778
20
-189.770114942529
11
1232.77777777778
21
-377.662835249042
0
LINE
8
Times
10
1232.77777777778
20
-417.662835249042
11
1232.77777777778
21
-490
0
LINE
8
Times
10
1242.63888888889
20
-10
11
1242.63888888889
21
-149.770114942529
0
LINE
8
Times
10
1242.63888888889
20
-189.770114942529
11
1242.63888888889
21
-377.662835249042
0
LINE
8
Times
10
1242.63888888889
20
-417.662835249042
11
1242.63888888889
21
-490
0
LINE
8
HourTimes
10
1252.5
20
-10
11
1252.5
21
-149.770114942529
0
LINE
8
HourTimes
10
1252.5
20
-189.770114942529
11
1252.5
21
-377.662835249042
0
LINE
8
HourTimes
10
1252.5
20
-417.662835249042
11
1252.5
21
-490
0
LINE
8
Times
10
1262.36111111111
20
-10
11
1262.36111111111
21
-149.770114942529
0
LINE
8
Times
10
1262.36111111111
20
-189.770114942529
11
1262.36111111111
21
-377.662835249042
0
LINE
8
Times
10
1262.36111111111
20
-417.662835249042
11
1262.36111111111
21
-490
0
LINE
8
Times
10
1272.22222222222
20
-10
11
1272.22222222222
21
-149.770114942529
0
LINE
8
Times
10
1272.22222222222
20
-189.770114942529
11
1272.22222222222
21
-377.662835249042
0
LINE
8
Times
10
1272.22222222222
20
-417.662835249042
11
1272.22222222222
21
-490
0
LINE
8
HalfTimes
10
1282.08333333333
20
-10
11
1282.08333333333
21
-149.770114942529
0
LINE
8
HalfTimes
10
1282.08333333333
20
-189.770114942529
11
1282.08333333333
21
-377.662835249042
0
LINE
8
HalfTimes
10
1282.08333333333
20
-417.662835249042
11
1282.08333333333
21
-490
0
LINE
8
Times
10
1291.94444444444
20
-10
11
1291.94444444444
21
-149.770114942529
0
LINE
8
Times
10
1291.94444444444
20
-189.770114942529
11
1291.94444444444
21
-377.662835249042
0
LINE
8
Times
10
1291.94444444444
20
-417.662835249042
11
1291.94444444444
21
-490
0
LINE
8
Times
10
1301.80555555556
20
-10
11
1301.80555555556
21
-149.770114942529
0
LINE
8
Times
10
1301.80555555556
20
-189.770114942529
11
1301.80555555556
21
-377.662835249042
0
LINE
8
Times
10
1301.80555555556
20
-417.662835249042
11
1301.80555555556
21
-490
0
LINE
8
HourTimes
10
1311.66666666667
20
-10
11
1311.66666666667
21
-149.770114942529
0
LINE
8
HourTimes
10
1311.66666666667
20
-189.770114942529
11
1311.66666666667
21
-377.662835249042
0
LINE
8
HourTimes
10
1311.66666666667
20
-417.662835249042
11
1311.66666666667
21
-490
0
LINE
8
Times
10
1321.52777777778
20
-10
11
1321.52777777778
21
-149.770114942529
0
LINE
8
Times
10
1321.52777777778
20
-189.770114942529
11
1321.52777777778
21
-377.662835249042
0
LINE
8
Times
10
1321.52777777778
20
-417.662835249042
11
1321.52777777778
21
-490
0
LINE
8
Times
10
1331.38888888889
20
-10
11
1331.38888888889
21
-149.770114942529
0
LINE
8
Times
10
1331.38888888889
20
-189.770114942529
11
1331.38888888889
21
-377.662835249042
0
LINE
8
Times
10
1331.38888888889
20
-417.662835249042
11
1331.38888888889
21
-490
0
LINE
8
HalfTimes
10
1341.25
20
-10
11
1341.25
21
-149.770114942529
0
LINE
8
HalfTimes
10
1341.25
20
-189.770114942529
11
1341.25
21
-377.662835249042
0
LINE
8
HalfTimes
10
1341.25
20
-417.662835249042
11
1341.25
21
-490
0
LINE
8
Times
10
1351.11111111111
20
-10
11
1351.11111111111
21
-149.770114942529
0
LINE
8
Times
10
1351.11111111111
20
-189.770114942529
11
1351.11111111111
21
-377.662835249042
0
LINE
8
Times
10
1351.11111111111
20
-417.662835249042
11
1351.11111111111
21
-490
0
LINE
8
Times
10
1360.97222222222
20
-10
11
1360.97222222222
21
-149.770114942529
0
LINE
8
Times
10
1360.97222222222
20
-189.770114942529
11
1360.97222222222
21
-377.662835249042
0
LINE
8
Times
10
1360.97222222222
20
-417.662835249042
11
1360.97222222222
21
-490
0
LINE
8
HourTimes
10
1370.83333333333
20
-10
11
1370.83333333333
21
-149.770114942529
0
LINE
8
HourTimes
10
1370.83333333333
20
-189.770114942529
11
1370.83333333333
21
-377.662835249042
0
LINE
8
HourTimes
10
1370.83333333333
20
-417.662835249042
11
1370.83333333333
21
-490
0
LINE
8
Times
10
1380.69444444444
20
-10
11
1380.69444444444
21
-149.770114942529
0
LINE
8
Times
10
1380.69444444444
20
-189.770114942529
11
1380.69444444444
21
-377.662835249042
0
LINE
8
Times
10
1380.69444444444
20
-417.662835249042
11
1380.69444444444
21
-490
0
LINE
8
Times
10
1390.55555555556
20
-10
11
1390.55555555556
21
-149.770114942529
0
LINE
8
Times
10
1390.55555555556
20
-189.770114942529
11
1390.55555555556
21
-377.662835249042
0
LINE
8
Times
10
1390.55555555556
20
-417.662835249042
11
1390.55555555556
21
-490
0
LINE
8
HalfTimes
10
1400.41666666667
20
-10
11
1400.41666666667
21
-149.770114942529
0
LINE
8
HalfTimes
10
1400.41666666667
20
-189.770114942529
11
1400.41666666667
21
-377.662835249042
0
LINE
8
HalfTimes
10
1400.41666666667
20
-417.662835249042
11
1400.41666666667
21
-490
0
LINE
8
Times
10
1410.27777777778
20
-10
11
1410.27777777778
21
-149.770114942529
0
LINE
8
Times
10
1410.27777777778
20
-189.770114942529
11
1410.27777777778
21
-377.662835249042
0
LINE
8
Times
10
1410.27777777778
20
-417.662835249042
11
1410.27777777778
21
-490
0
LINE
8
Times
10
1420.13888888889
20
-10
11
1420.13888888889
21
-149.770114942529
0
LINE
8
Times
10
1420.13888888889
20
-189.770114942529
11
1420.13888888889
21
-377.662835249042
0
LINE
8
Times
10
1420.13888888889
20
-417.662835249042
11
1420.13888888889
21
-490
0
LINE
8
Trains
10
305.833333333333
20
-10
11
310.763888888889
21
-10
0
LINE
8
Trains
10
310.763888888889
20
-10
11
335.416666666667
21
-75.2873563218391
0
LINE
8
Trains
10
335.416666666667
20
-75.2873563218391
11
340.347222222222
21
-75.2873563218391
0
LINE
8
Trains
10
340.347222222222
20
-75.2873563218391
11
355.138888888889
21
-149.770114942529
0
LINE
8
Trains
10
355.138888888889
20
-149.770114942529
11
360.069444444444
21
-149.770114942529
0
LINE
8
Trains
10
380.12037037037
20
-189.770114942529
11
383.243055555556
21
-189.770114942529
0
LINE
8
Trains
10
383.243055555556
20
-189.770114942529
11
396.802083333333
21
-305.325670498084
0
LINE
8
Trains
10
396.802083333333
20
-305.325670498084
11
398.856481481481
21
-305.325670498084
0
LINE
8
TrainID
10
305.833333333333
20
-10
11
305.833333333333
21
-5
0
LINE
8
TrainID
10
300.833333333333
20
-5
11
310.833333333333
21
-5
0
TEXT
8
TrainID
10
300.833343505859
20
-5
1
G1001
40
3
0
LINE
8
TrainID
10
360.069444444444
20
-149.770114942529
11
360.069444444444
21
-154.770114942529
0
LINE
8
TrainID
10
360.069444444444
20
-154.770114942529
11
365.069444444444
21
-154.770114942529
0
LINE
8
TrainID
10
365.069444444444
20
-154.770114942529
11
362.569444444444
21
-157.270114942529
0
LINE
8
TrainID
10
380.12037037037
20
-189.770114942529
11
380.12037037037
21
-184.770114942529
0
LINE
8
TrainID
10
370.12037037037
20
-184.770114942529
11
380.12037037037
21
-184.770114942529
0
LINE
8
TrainID
10
370.12037037037
20
-184.770114942529
11
366.12037037037
21
-181.770114942529
0
TEXT
8
TrainID
10
370.120361328125
20
-184.770111083984
1
G1001
40
3
0
LINE
8
TrainID
10
398.856481481481
20
-305.325670498084
11
398.856481481481
21
-310.325670498084
0
LINE
8
TrainID
10
396.356481481481
20
-310.325670498084
11
401.356481481481
21
-310.325670498084
0
LINE
8
TrainID
10
396.356481481481
20
-310.325670498084
11
398.856481481481
21
-312.825670498084
0
LINE
8
TrainID
10
401.356481481481
20
-310.325670498084
11
398.856481481481
21
-312.825670498084
0
TEXT
8
TrainTime
10
306.333333333333
20
-9.5
1
0
40
1
0
TEXT
8
TrainTime
10
309.263888888889
20
-11.5
1
5
40
1
0
TEXT
8
TrainTime
10
335.916666666667
20
-74.7873563218391
1
0
40
1
0
TEXT
8
TrainTime
10
338.847222222222
20
-76.7873563218391
1
5
40
1
0
TEXT
8
TrainTime
10
355.638888888889
20
-149.270114942529
1
0
40
1
0
TEXT
8
TrainTime
10
358.569444444444
20
-151.270114942529
1
5
40
1
0
TEXT
8
TrainTime
10
380.62037037037
20
-189.270114942529
1
5
40
1
0
TEXT
8
TrainTime
10
381.287037037037
20
-189.270114942529
1
20
40
0.333333333333333
0
TEXT
8
TrainTime
10
381.743055555556
20
-191.270114942529
1
8
40
1
0
TEXT
8
TrainTime
10
382.743055555556
20
-191.270114942529
1
30
40
0.333333333333333
0
TEXT
8
TrainTime
10
397.302083333333
20
-304.825670498084
1
2
40
1
0
TEXT
8
TrainTime
10
397.96875
20
-304.825670498084
1
15
40
0.333333333333333
0
TEXT
8
TrainTime
10
397.356481481481
20
-306.825670498084
1
4
40
1
0
TEXT
8
TrainTime
10
398.356481481481
20
-306.825670498084
1
20
40
0.333333333333333
0
LINE
8
Trains
10
305.833333333333
20
-490
11
310.763888888889
21
-490
0
LINE
8
Trains
10
310.763888888889
20
-490
11
335.416666666667
21
-448.620689655172
0
LINE
8
Trains
10
335.416666666667
20
-448.620689655172
11
340.347222222222
21
-448.620689655172
0
LINE
8
Trains
10
340.347222222222
20
-448.620689655172
11
355.138888888889
21
-417.662835249042
0
LINE
8
Trains
10
355.138888888889
20
-417.662835249042
11
360.069444444444
21
-417.662835249042
0
LINE
8
Trains
10
380.12037037037
20
-377.662835249042
11
383.243055555556
21
-377.662835249042
0
LINE
8
Trains
10
383.243055555556
20
-377.662835249042
11
396.802083333333
21
-305.325670498084
0
LINE
8
Trains
10
396.802083333333
20
-305.325670498084
11
398.856481481481
21
-305.325670498084
0
LINE
8
Trains
10
398.856481481481
20
-305.325670498084
11
414.305555555556
21
-189.770114942529
0
LINE
8
Trains
10
414.305555555556
20
-189.770114942529
11
419.236111111111
21
-189.770114942529
0
LINE
8
Trains
10
444.217592592593
20
-149.770114942529
11
448.326388888889
21
-149.770114942529
0
LINE
8
Trains
10
448.326388888889
20
-149.770114942529
11
456.954861111111
21
-75.2873563218391
0
LINE
8
Trains
10
456.954861111111
20
-75.2873563218391
11
459.009259259259
21
-75.2873563218391
0
LINE
8
TrainID
10
305.833333333333
20
-490
11
305.833333333333
21
-495
0
LINE
8
TrainID
10
300.833333333333
20
-495
11
310.833333333333
21
-495
0
TEXT
8
TrainID
10
300.833343505859
20
-498
1
G1002
40
3
0
LINE
8
TrainID
10
360.069444444444
20
-417.662835249042
11
360.069444444444
21
-412.662835249042
0
LINE
8
TrainID
10
360.069444444444
20
-412.662835249042
11
365.069444444444
21
-412.662835249042
0
LINE
8
TrainID
10
365.069444444444
20
-412.662835249042
11
362.569444444444
21
-410.162835249042
0
LINE
8
TrainID
10
380.12037037037
20
-377.662835249042
11
380.12037037037
21
-382.662835249042
0
LINE
8
TrainID
10
370.12037037037
20
-382.662835249042
11
380.12037037037
21
-382.662835249042
0
LINE
8
TrainID
10
370.12037037037
20
-382.662835249042
11
366.12037037037
21
-385.662835249042
0
TEXT
8
TrainID
10
370.120361328125
20
-385.662841796875
1
G1002
40
3
0
LINE
8
TrainID
10
419.236111111111
20
-189.770114942529
11
419.236111111111
21
-184.770114942529
0
LINE
8
TrainID
10
419.236111111111
20
-184.770114942529
11
424.236111111111
21
-184.770114942529
0
LINE
8
TrainID
10
424.236111111111
20
-184.770114942529
11
421.736111111111
21
-182.270114942529
0
LINE
8
TrainID
10
444.217592592593
20
-149.770114942529
11
444.217592592593
21
-154.770114942529
0
LINE
8
TrainID
10
434.217592592593
20
-154.770114942529
11
444.217592592593
21
-154.770114942529
0
LINE
8
TrainID
10
434.217592592593
20
-154.770114942529
11
430.217592592593
21
-157.770114942529
0
TEXT
8
TrainID
10
434.217590332031
20
-157.770111083984
1
G1002
40
3
0
LINE
8
TrainID
10
459.009259259259
20
-75.2873563218391
11
459.009259259259
21
-70.2873563218391
0
LINE
8
TrainID
10
456.509259259259
20
-70.2873563218391
11
461.509259259259
21
-70.2873563218391
0
LINE
8
TrainID
10
456.509259259259
20
-70.2873563218391
11
459.009259259259
21
-67.7873563218391
0
LINE
8
TrainID
10
461.509259259259
20
-70.2873563218391
11
459.009259259259
21
-67.7873563218391
0
TEXT
8
TrainTime
10
306.333333333333
20
-491.5
1
0
40
1
0
TEXT
8
TrainTime
10
309.263888888889
20
-489.5
1
5
40
1
0
TEXT
8
TrainTime
10
335.916666666667
20
-450.120689655172
1
0
40
1
0
TEXT
8
TrainTime
10
338.847222222222
20
-448.120689655172
1
5
40
1
0
TEXT
8
TrainTime
10
355.638888888889
20
-419.162835249042
1
0
40
1
0
TEXT
8
TrainTime
10
358.569444444444
20
-417.162835249042
1
5
40
1
0
TEXT
8
TrainTime
10
380.62037037037
20
-379.162835249042
1
5
40
1
0
TEXT
8
TrainTime
10
381.62037037037
20
-379.162835249042
1
20
40
0.333333333333333
0
TEXT
8
TrainTime
10
381.743055555556
20
-377.162835249042
1
8
40
1
0
TEXT
8
TrainTime
10
382.743055555556
20
-377.162835249042
1
30
40
0.333333333333333
0
TEXT
8
TrainTime
10
397.302083333333
20
-306.825670498084
1
2
40
1
0
TEXT
8
TrainTime
10
398.302083333333
20
-306.825670498084
1
15
40
0.333333333333333
0
TEXT
8
TrainTime
10
397.356481481481
20
-304.825670498084
1
4
40
1
0
TEXT
8
TrainTime
10
398.356481481481
20
-304.825670498084
1
20
40
0.333333333333333
0
TEXT
8
TrainTime
10
414.805555555556
20
-191.270114942529
1
0
40
1
0
TEXT
8
TrainTime
10
417.736111111111
20
-189.270114942529
1
5
40
1
0
TEXT
8
TrainTime
10
444.717592592593
20
-151.270114942529
1
0
40
1
0
TEXT
8
TrainTime
10
445.717592592593
20
-151.270114942529
1
20
40
0.333333333333333
0
TEXT
8
TrainTime
10
446.826388888889
20
-149.270114942529
1
4
40
1
0
TEXT
8
TrainTime
10
447.826388888889
20
-149.270114942529
1
30
40
0.333333333333333
0
TEXT
8
TrainTime
10
457.454861111111
20
-76.7873563218391
1
3
40
1
0
TEXT
8
TrainTime
10
458.454861111111
20
-76.7873563218391
1
15
40
0.333333333333333
0
TEXT
8
TrainTime
10
457.509259259259
20
-74.7873563218391
1
5
40
1
0
TEXT
8
TrainTime
10
458.509259259259
20
-74.7873563218391
1
20
40
0.333333333333333
0
ENDSEC
0
EOF
